# xmcd
#
# Track frame offsets:
# 150
# 36037
# 54539
# 89673
# 110913
# 133725
# 163722
# 206199
# 212586
# 282610
#
# Disc length: 4390 seconds
#
# Revision: 0
# Processed by: cddbd v1.4PL0 Copyright (c) Steve Scherf et al.
# Submitted via: Axialis_AX_CDPlayer 2.6
#
DISCID=a111240a
DTITLE=Orbital - Snivilisation
DYEAR=1900
DGENRE=
TTITLE0=Forever
TTITLE1=I Wish I Had Duck Feet
TTITLE2=Sad But True
TTITLE3=Crash And Carry
TTITLE4=Science Fiction
TTITLE5=Philosophy By Numbers
TTITLE6=Kein Trink Wasser
TTITLE7=Quality Seconds
TTITLE8=Are We Here?
TTITLE9=Attached
EXTD=
EXTT0=
EXTT1=
EXTT2=
EXTT3=
EXTT4=
EXTT5=
EXTT6=
EXTT7=
EXTT8=
EXTT9=
PLAYORDER=
